<?xml version="1.0" standalone="yes"?>

<svg version="1.1" viewBox="0.0 0.0 829.6377952755905 194.41207349081364" fill="none" stroke="none" stroke-linecap="square" stroke-miterlimit="10" xmlns="http://www.w3.org/2000/svg" xmlns:xlink="http://www.w3.org/1999/xlink"><clipPath id="p.0"><path d="m0 0l829.6378 0l0 194.41208l-829.6378 0l0 -194.41208z" clip-rule="nonzero"></path></clipPath><g clip-path="url(#p.0)"><path fill="#000000" fill-opacity="0.0" d="m0 0l829.6378 0l0 194.41208l-829.6378 0z" fill-rule="nonzero"></path><path fill="#cfe2f3" d="m4.52231 92.96457l0 0c0 4.5248184 17.203547 8.192909 38.425198 8.192909c21.221653 0 38.425198 -3.6680908 38.425198 -8.192909l0 49.157486c0 4.524811 -17.203545 8.192902 -38.425198 8.192902c-21.22165 0 -38.425198 -3.6680908 -38.425198 -8.192902z" fill-rule="nonzero"></path><path fill="#e2edf7" d="m4.52231 92.96457l0 0c0 -4.524826 17.203547 -8.192917 38.425198 -8.192917c21.221653 0 38.425198 3.6680908 38.425198 8.192917l0 0c0 4.5248184 -17.203545 8.192909 -38.425198 8.192909c-21.22165 0 -38.425198 -3.6680908 -38.425198 -8.192909z" fill-rule="nonzero"></path><path fill="#000000" fill-opacity="0.0" d="m81.3727 92.96457l0 0c0 4.5248184 -17.203545 8.192909 -38.425198 8.192909c-21.22165 0 -38.425198 -3.6680908 -38.425198 -8.192909l0 0c0 -4.524826 17.203547 -8.192917 38.425198 -8.192917c21.221653 0 38.425198 3.6680908 38.425198 8.192917l0 49.157486c0 4.524811 -17.203545 8.192902 -38.425198 8.192902c-21.22165 0 -38.425198 -3.6680908 -38.425198 -8.192902l0 -49.157486" fill-rule="nonzero"></path><path stroke="#000000" stroke-width="2.0" stroke-linejoin="round" stroke-linecap="butt" d="m81.3727 92.96457l0 0c0 4.5248184 -17.203545 8.192909 -38.425198 8.192909c-21.22165 0 -38.425198 -3.6680908 -38.425198 -8.192909l0 0c0 -4.524826 17.203547 -8.192917 38.425198 -8.192917c21.221653 0 38.425198 3.6680908 38.425198 8.192917l0 49.157486c0 4.524811 -17.203545 8.192902 -38.425198 8.192902c-21.22165 0 -38.425198 -3.6680908 -38.425198 -8.192902l0 -49.157486" fill-rule="nonzero"></path><path fill="#000000" d="m19.07041 128.55977l0 -13.593758l1.8125 0l0 5.578125l7.0625 0l0 -5.578125l1.796875 0l0 13.593758l-1.796875 0l0 -6.4062576l-7.0625 0l0 6.4062576l-1.8125 0zm13.426069 0l0 -13.593758l4.6875 0q1.578125 0 2.421875 0.1875q1.15625 0.265625 1.984375 0.96875q1.078125 0.921875 1.609375 2.34375q0.53125 1.40625 0.53125 3.21875q0 1.546875 -0.359375 2.75q-0.359375 1.1875 -0.921875 1.984375q-0.5625 0.78125 -1.234375 1.234375q-0.671875 0.43750763 -1.625 0.6718826q-0.953125 0.234375 -2.1875 0.234375l-4.90625 0zm1.796875 -1.6093826l2.90625 0q1.34375 0 2.109375 -0.25q0.765625 -0.25 1.21875 -0.703125q0.640625 -0.640625 1.0 -1.71875q0.359375 -1.078125 0.359375 -2.625q0 -2.125 -0.703125 -3.265625q-0.703125 -1.15625 -1.703125 -1.546875q-0.71875 -0.28125 -2.328125 -0.28125l-2.859375 0l0 10.390625zm11.769821 1.6093826l0 -13.593758l9.171875 0l0 1.59375l-7.375 0l0 4.21875l6.375 0l0 1.609375l-6.375 0l0 6.1718826l-1.796875 0zm10.692856 -4.3750076l1.6875 -0.140625q0.125 1.015625 0.5625 1.671875q0.4375 0.65625 1.359375 1.0625q0.9375 0.40625 2.09375 0.40625q1.03125 0 1.8125038 -0.3125q0.796875 -0.3125 1.1875 -0.84375q0.390625 -0.53125 0.390625 -1.15625q0 -0.640625 -0.375 -1.109375q-0.375 -0.484375 -1.234375 -0.8125q-0.5468788 -0.21875 -2.4218788 -0.65625q-1.875 -0.453125 -2.625 -0.859375q-0.96875 -0.515625 -1.453125 -1.265625q-0.46875 -0.75 -0.46875 -1.6875q0 -1.03125 0.578125 -1.921875q0.59375 -0.90625 1.703125 -1.359375q1.125 -0.46875 2.5 -0.46875q1.515625 0 2.6718788 0.484375q1.15625 0.484375 1.765625 1.4375q0.625 0.9375 0.671875 2.140625l-1.71875 0.125q-0.140625 -1.28125 -0.953125 -1.9375q-0.7968788 -0.671875 -2.3593788 -0.671875q-1.625 0 -2.375 0.609375q-0.75 0.59375 -0.75 1.4375q0 0.734375 0.53125 1.203125q0.515625 0.46875 2.703125 0.96875q2.2031288 0.5 3.0156288 0.875q1.1875 0.546875 1.75 1.390625q0.578125 0.828125 0.578125 1.921875q0 1.09375 -0.625 2.0625q-0.625 0.953125 -1.796875 1.4843826q-1.15625 0.53125 -2.6093788 0.53125q-1.84375 0 -3.09375 -0.53125q-1.25 -0.5468826 -1.96875 -1.6250076q-0.703125 -1.078125 -0.734375 -2.453125z" fill-rule="nonzero"></path><path fill="#000000" fill-opacity="0.0" d="m144.68869 117.543304l-63.30709 0" fill-rule="nonzero"></path><path stroke="#000000" stroke-width="2.0" stroke-linejoin="round" stroke-linecap="butt" d="m144.68869 117.543304l-51.30709 0" fill-rule="evenodd"></path><path fill="#000000" stroke="#000000" stroke-width="2.0" stroke-linecap="butt" d="m93.3816 114.239845l-9.076195 3.3034592l9.076195 3.3034668z" fill-rule="evenodd"></path><path fill="#cfe2f3" d="m144.68869 84.77165l115.01431 0l0 65.543304l-115.01431 0z" fill-rule="nonzero"></path><path stroke="#000000" stroke-width="2.0" stroke-linejoin="round" stroke-linecap="butt" d="m144.68869 84.77165l115.01431 0l0 65.543304l-115.01431 0z" fill-rule="nonzero"></path><path fill="#000000" d="m179.97017 113.183304l0 -12.171875l1.609375 0l0 5.0l6.328125 0l0 -5.0l1.609375 0l0 12.171875l-1.609375 0l0 -5.734375l-6.328125 0l0 5.734375l-1.609375 0zm12.466949 0l0 -12.171875l4.1875 0q1.421875 0 2.171875 0.171875q1.046875 0.25 1.78125 0.875q0.96875 0.8125 1.4375 2.078125q0.484375 1.265625 0.484375 2.890625q0 1.390625 -0.328125 2.46875q-0.328125 1.0625 -0.828125 1.765625q-0.5 0.703125 -1.109375 1.109375q-0.59375 0.390625 -1.453125 0.609375q-0.84375 0.203125 -1.953125 0.203125l-4.390625 0zm1.609375 -1.4375l2.59375 0q1.203125 0 1.890625 -0.21875q0.6875 -0.234375 1.09375 -0.640625q0.578125 -0.5625 0.890625 -1.53125q0.328125 -0.96875 0.328125 -2.34375q0 -1.90625 -0.640625 -2.9375q-0.625 -1.03125 -1.515625 -1.375q-0.640625 -0.25 -2.078125 -0.25l-2.5625 0l0 9.296875zm10.982574 1.4375l0 -12.171875l8.21875 0l0 1.4375l-6.609375 0l0 3.765625l5.71875 0l0 1.4375l-5.71875 0l0 5.53125l-1.609375 0zm9.959717 -3.90625l1.515625 -0.140625q0.109375 0.921875 0.5 1.515625q0.390625 0.578125 1.21875 0.9375q0.84375 0.359375 1.875 0.359375q0.921875 0 1.625 -0.265625q0.703125 -0.28125 1.046875 -0.75q0.359375 -0.484375 0.359375 -1.046875q0 -0.578125 -0.34375 -1.0q-0.328125 -0.4375 -1.09375 -0.71875q-0.484375 -0.203125 -2.171875 -0.59375q-1.671875 -0.40625 -2.34375 -0.765625q-0.875 -0.453125 -1.296875 -1.125q-0.421875 -0.6875 -0.421875 -1.515625q0 -0.921875 0.515625 -1.71875q0.53125 -0.8125 1.53125 -1.21875q1.0 -0.421875 2.234375 -0.421875q1.34375 0 2.375 0.4375q1.046875 0.4375 1.59375 1.28125q0.5625 0.84375 0.59375 1.921875l-1.53125 0.109375q-0.125 -1.15625 -0.84375 -1.734375q-0.71875 -0.59375 -2.125 -0.59375q-1.453125 0 -2.125 0.53125q-0.671875 0.53125 -0.671875 1.296875q0 0.65625 0.46875 1.078125q0.46875 0.421875 2.421875 0.875q1.96875 0.4375 2.703125 0.765625q1.0625 0.484375 1.5625 1.234375q0.515625 0.75 0.515625 1.734375q0 0.96875 -0.5625 1.828125q-0.546875 0.859375 -1.59375 1.34375q-1.046875 0.46875 -2.34375 0.46875q-1.65625 0 -2.78125 -0.46875q-1.109375 -0.484375 -1.75 -1.453125q-0.625 -0.96875 -0.65625 -2.1875z" fill-rule="nonzero"></path><path fill="#000000" d="m181.54611 132.83955l0.203125 1.328125q-0.625 0.125 -1.125 0.125q-0.8125 0 -1.265625 -0.25q-0.4375 -0.265625 -0.625 -0.671875q-0.1875 -0.421875 -0.1875 -1.765625l0 -5.078125l-1.09375 0l0 -1.15625l1.09375 0l0 -2.1875l1.484375 -0.890625l0 3.078125l1.515625 0l0 1.15625l-1.515625 0l0 5.15625q0 0.640625 0.078125 0.828125q0.078125 0.171875 0.25 0.28125q0.1875 0.109375 0.53125 0.109375q0.234375 0 0.65625 -0.0625zm7.579941 -1.5l1.546875 0.203125q-0.375 1.34375 -1.359375 2.09375q-0.984375 0.75 -2.515625 0.75q-1.9375 0 -3.078125 -1.1875q-1.125 -1.203125 -1.125 -3.34375q0 -2.234375 1.140625 -3.453125q1.140625 -1.234375 2.96875 -1.234375q1.78125 0 2.890625 1.203125q1.125 1.203125 1.125 3.390625q0 0.125 -0.015625 0.390625l-6.5625 0q0.078125 1.453125 0.8125 2.234375q0.75 0.765625 1.84375 0.765625q0.828125 0 1.40625 -0.421875q0.578125 -0.4375 0.921875 -1.390625zm-4.90625 -2.40625l4.921875 0q-0.09375 -1.109375 -0.5625 -1.671875q-0.71875 -0.859375 -1.859375 -0.859375q-1.015625 0 -1.71875 0.6875q-0.703125 0.6875 -0.78125 1.84375zm7.512085 5.25l3.21875 -4.578125l-2.984375 -4.234375l1.875 0l1.359375 2.0625q0.375 0.59375 0.609375 0.984375q0.359375 -0.546875 0.671875 -0.96875l1.484375 -2.078125l1.78125 0l-3.046875 4.140625l3.28125 4.671875l-1.828125 0l-1.8125 -2.734375l-0.484375 -0.75l-2.3125 3.484375l-1.8125 0zm12.9296875 -1.34375l0.203125 1.328125q-0.625 0.125 -1.125 0.125q-0.8125 0 -1.265625 -0.25q-0.4375 -0.265625 -0.625 -0.671875q-0.1875 -0.421875 -0.1875 -1.765625l0 -5.078125l-1.09375 0l0 -1.15625l1.09375 0l0 -2.1875l1.484375 -0.890625l0 3.078125l1.515625 0l0 1.15625l-1.515625 0l0 5.15625q0 0.640625 0.078125 0.828125q0.078125 0.171875 0.25 0.28125q0.1875 0.109375 0.53125 0.109375q0.234375 0 0.65625 -0.0625zm1.9080658 1.34375l0 -7.65625l-1.328125 0l0 -1.15625l1.328125 0l0 -0.9375q0 -0.890625 0.15625 -1.328125q0.203125 -0.578125 0.75 -0.9375q0.546875 -0.359375 1.53125 -0.359375q0.625 0 1.390625 0.140625l-0.21875 1.3125q-0.46875 -0.078125 -0.890625 -0.078125q-0.671875 0 -0.953125 0.296875q-0.28125 0.28125 -0.28125 1.078125l0 0.8125l1.71875 0l0 1.15625l-1.71875 0l0 7.65625l-1.484375 0zm4.454941 -10.453125l0 -1.71875l1.5 0l0 1.71875l-1.5 0zm0 10.453125l0 -8.8125l1.5 0l0 8.8125l-1.5 0zm3.818512 0l0 -12.171875l1.484375 0l0 12.171875l-1.484375 0zm9.912262 -2.84375l1.546875 0.203125q-0.375 1.34375 -1.359375 2.09375q-0.984375 0.75 -2.515625 0.75q-1.9375 0 -3.078125 -1.1875q-1.125 -1.203125 -1.125 -3.34375q0 -2.234375 1.140625 -3.453125q1.140625 -1.234375 2.96875 -1.234375q1.78125 0 2.890625 1.203125q1.125 1.203125 1.125 3.390625q0 0.125 -0.015625 0.390625l-6.5625 0q0.078125 1.453125 0.8125 2.234375q0.75 0.765625 1.84375 0.765625q0.828125 0 1.40625 -0.421875q0.578125 -0.4375 0.921875 -1.390625zm-4.90625 -2.40625l4.921875 0q-0.09375 -1.109375 -0.5625 -1.671875q-0.71875 -0.859375 -1.859375 -0.859375q-1.015625 0 -1.71875 0.6875q-0.703125 0.6875 -0.78125 1.84375z" fill-rule="nonzero"></path><path fill="#073763" d="m149.02473 58.755905l106.34221 0c1.1499939 0 2.2528992 0.4568329 3.06604 1.2699966c0.8131714 0.8131676 1.2700195 1.9160576 1.2700195 3.0660477l0 21.679703c0 5.264282E-4 -4.272461E-4 9.613037E-4 -9.765625E-4 9.613037E-4l-115.013336 -9.613037E-4l0 0c-5.340576E-4 0 -9.613037E-4 -4.272461E-4 -9.613037E-4 -9.613037E-4l9.613037E-4 -21.678741l0 0c0 -2.3947296 1.9413147 -4.3360443 4.3360443 -4.3360443z" fill-rule="nonzero"></path><path stroke="#000000" stroke-width="2.0" stroke-linejoin="round" stroke-linecap="butt" d="m149.02473 58.755905l106.34221 0c1.1499939 0 2.2528992 0.4568329 3.06604 1.2699966c0.8131714 0.8131676 1.2700195 1.9160576 1.2700195 3.0660477l0 21.679703c0 5.264282E-4 -4.272461E-4 9.613037E-4 -9.765625E-4 9.613037E-4l-115.013336 -9.613037E-4l0 0c-5.340576E-4 0 -9.613037E-4 -4.272461E-4 -9.613037E-4 -9.613037E-4l9.613037E-4 -21.678741l0 0c0 -2.3947296 1.9413147 -4.3360443 4.3360443 -4.3360443z" fill-rule="nonzero"></path><path fill="#ffffff" d="m186.12944 78.25877l0 -11.453125l5.078125 0q1.53125 0 2.328125 0.3125q0.796875 0.296875 1.265625 1.078125q0.484375 0.78125 0.484375 1.734375q0 1.21875 -0.796875 2.0625q-0.78125 0.828125 -2.4375 1.046875q0.609375 0.296875 0.921875 0.578125q0.65625 0.609375 1.25 1.515625l2.0 3.125l-1.90625 0l-1.515625 -2.390625q-0.671875 -1.03125 -1.109375 -1.578125q-0.421875 -0.546875 -0.765625 -0.765625q-0.328125 -0.21875 -0.6875 -0.296875q-0.25 -0.0625 -0.84375 -0.0625l-1.75 0l0 5.09375l-1.515625 0zm1.515625 -6.40625l3.25 0q1.046875 0 1.625 -0.203125q0.59375 -0.21875 0.890625 -0.6875q0.3125 -0.484375 0.3125 -1.03125q0 -0.8125 -0.59375 -1.328125q-0.59375 -0.53125 -1.859375 -0.53125l-3.625 0l0 3.78125zm10.0078125 6.40625l0 -11.453125l3.953125 0q1.328125 0 2.03125 0.15625q0.984375 0.234375 1.6875 0.828125q0.90625 0.765625 1.34375 1.953125q0.453125 1.1875 0.453125 2.71875q0 1.3125 -0.3125 2.328125q-0.296875 1.0 -0.78125 1.65625q-0.46875 0.65625 -1.03125 1.046875q-0.5625 0.375 -1.375 0.578125q-0.796875 0.1875 -1.828125 0.1875l-4.140625 0zm1.515625 -1.359375l2.453125 0q1.125 0 1.765625 -0.203125q0.65625 -0.21875 1.03125 -0.59375q0.546875 -0.546875 0.84375 -1.453125q0.296875 -0.90625 0.296875 -2.203125q0 -1.796875 -0.59375 -2.765625q-0.578125 -0.96875 -1.421875 -1.296875q-0.609375 -0.234375 -1.96875 -0.234375l-2.40625 0l0 8.75zm10.0390625 1.359375l0 -11.453125l3.953125 0q1.328125 0 2.03125 0.15625q0.984375 0.234375 1.6875 0.828125q0.90625 0.765625 1.34375 1.953125q0.453125 1.1875 0.453125 2.71875q0 1.3125 -0.3125 2.328125q-0.296875 1.0 -0.78125 1.65625q-0.46875 0.65625 -1.03125 1.046875q-0.5625 0.375 -1.375 0.578125q-0.796875 0.1875 -1.828125 0.1875l-4.140625 0zm1.515625 -1.359375l2.453125 0q1.125 0 1.765625 -0.203125q0.65625 -0.21875 1.03125 -0.59375q0.546875 -0.546875 0.84375 -1.453125q0.296875 -0.90625 0.296875 -2.203125q0 -1.796875 -0.59375 -2.765625q-0.578125 -0.96875 -1.421875 -1.296875q-0.609375 -0.234375 -1.96875 -0.234375l-2.40625 0l0 8.75z" fill-rule="nonzero"></path><path fill="#cfe2f3" d="m294.65985 84.77165l113.37738 0l0 65.543304l-113.37738 0z" fill-rule="nonzero"></path><path stroke="#000000" stroke-width="2.0" stroke-linejoin="round" stroke-linecap="butt" d="m294.65985 84.77165l113.37738 0l0 65.543304l-113.37738 0z" fill-rule="nonzero"></path><path fill="#000000" d="m306.6316 123.683304l0 -7.65625l-1.328125 0l0 -1.15625l1.328125 0l0 -0.9375q0 -0.890625 0.15625 -1.328125q0.203125 -0.578125 0.75 -0.9375q0.546875 -0.359375 1.53125 -0.359375q0.625 0 1.390625 0.140625l-0.21875 1.3125q-0.46875 -0.078125 -0.890625 -0.078125q-0.671875 0 -0.953125 0.296875q-0.28125 0.28125 -0.28125 1.078125l0 0.8125l1.71875 0l0 1.15625l-1.71875 0l0 7.65625l-1.484375 0zm4.454956 -10.453125l0 -1.71875l1.5 0l0 1.71875l-1.5 0zm0 10.453125l0 -8.8125l1.5 0l0 8.8125l-1.5 0zm3.818512 0l0 -12.171875l1.484375 0l0 12.171875l-1.484375 0zm7.146637 -1.34375l0.203125 1.328125q-0.625 0.125 -1.125 0.125q-0.8125 0 -1.265625 -0.25q-0.4375 -0.265625 -0.625 -0.671875q-0.1875 -0.421875 -0.1875 -1.765625l0 -5.078125l-1.09375 0l0 -1.15625l1.09375 0l0 -2.1875l1.484375 -0.890625l0 3.078125l1.515625 0l0 1.15625l-1.515625 0l0 5.15625q0 0.640625 0.078125 0.828125q0.078125 0.171875 0.25 0.28125q0.1875 0.109375 0.53125 0.109375q0.234375 0 0.65625 -0.0625zm7.5799255 -1.5l1.546875 0.203125q-0.375 1.34375 -1.359375 2.09375q-0.984375 0.75 -2.515625 0.75q-1.9375 0 -3.078125 -1.1875q-1.125 -1.203125 -1.125 -3.34375q0 -2.234375 1.140625 -3.453125q1.140625 -1.234375 2.96875 -1.234375q1.78125 0 2.890625 1.203125q1.125 1.203125 1.125 3.390625q0 0.125 -0.015625 0.390625l-6.5625 0q0.078125 1.453125 0.8125 2.234375q0.75 0.765625 1.84375 0.765625q0.828125 0 1.40625 -0.421875q0.578125 -0.4375 0.921875 -1.390625zm-4.90625 -2.40625l4.921875 0q-0.09375 -1.109375 -0.5625 -1.671875q-0.71875 -0.859375 -1.859375 -0.859375q-1.015625 0 -1.71875 0.6875q-0.703125 0.6875 -0.78125 1.84375zm8.49646 5.25l0 -8.8125l1.34375 0l0 1.328125q0.515625 -0.9375 0.9375 -1.234375q0.4375 -0.296875 0.96875 -0.296875q0.75 0 1.53125 0.484375l-0.515625 1.390625q-0.546875 -0.328125 -1.09375 -0.328125q-0.484375 0 -0.875 0.296875q-0.390625 0.296875 -0.5625 0.8125q-0.25 0.796875 -0.25 1.75l0 4.609375l-1.484375 0zm8.629791 3.578125q-1.234375 -1.5625 -2.09375 -3.65625q-0.84375 -2.09375 -0.84375 -4.328125q0 -1.984375 0.640625 -3.78125q0.75 -2.109375 2.296875 -4.1875l1.078125 0q-1.0 1.71875 -1.328125 2.46875q-0.5 1.140625 -0.796875 2.390625q-0.359375 1.546875 -0.359375 3.109375q0 4.0 2.484375 7.984375l-1.078125 0zm4.0985107 -13.703125l0 1.734375l-1.609375 0l0 -1.375q0 -1.109375 0.265625 -1.609375q0.34375 -0.65625 1.109375 -1.0l0.359375 0.578125q-0.453125 0.1875 -0.671875 0.578125q-0.21875 0.375 -0.234375 1.09375l0.78125 0zm2.5625 0l0 1.734375l-1.59375 0l0 -1.375q0 -1.109375 0.265625 -1.609375q0.34375 -0.65625 1.09375 -1.0l0.375 0.578125q-0.453125 0.1875 -0.671875 0.578125q-0.21875 0.375 -0.25 1.09375l0.78125 0zm2.2547913 10.125l0 -12.171875l8.796875 0l0 1.4375l-7.1875 0l0 3.734375l6.734375 0l0 1.421875l-6.734375 0l0 4.140625l7.46875 0l0 1.4375l-9.078125 0zm11.557709 0l0 -12.171875l5.390625 0q1.625 0 2.46875 0.328125q0.84375 0.328125 1.34375 1.15625q0.515625 0.828125 0.515625 1.84375q0 1.296875 -0.84375 2.1875q-0.828125 0.875 -2.578125 1.125q0.640625 0.296875 0.96875 0.59375q0.703125 0.65625 1.328125 1.625l2.125 3.3125l-2.03125 0l-1.609375 -2.53125q-0.703125 -1.09375 -1.15625 -1.671875q-0.453125 -0.59375 -0.828125 -0.8125q-0.359375 -0.234375 -0.71875 -0.328125q-0.28125 -0.0625 -0.90625 -0.0625l-1.859375 0l0 5.40625l-1.609375 0zm1.609375 -6.796875l3.453125 0q1.109375 0 1.71875 -0.21875q0.625 -0.234375 0.953125 -0.734375q0.328125 -0.515625 0.328125 -1.09375q0 -0.875 -0.625 -1.421875q-0.625 -0.5625 -1.984375 -0.5625l-3.84375 0l0 4.03125zm10.904449 6.796875l0 -12.171875l5.390625 0q1.625 0 2.46875 0.328125q0.84375 0.328125 1.34375 1.15625q0.515625 0.828125 0.515625 1.84375q0 1.296875 -0.84375 2.1875q-0.828125 0.875 -2.578125 1.125q0.640625 0.296875 0.96875 0.59375q0.703125 0.65625 1.328125 1.625l2.125 3.3125l-2.03125 0l-1.609375 -2.53125q-0.703125 -1.09375 -1.15625 -1.671875q-0.453125 -0.59375 -0.828125 -0.8125q-0.359375 -0.234375 -0.71875 -0.328125q-0.28125 -0.0625 -0.90625 -0.0625l-1.859375 0l0 5.40625l-1.609375 0zm1.609375 -6.796875l3.453125 0q1.109375 0 1.71875 -0.21875q0.625 -0.234375 0.953125 -0.734375q0.328125 -0.515625 0.328125 -1.09375q0 -0.875 -0.625 -1.421875q-0.625 -0.5625 -1.984375 -0.5625l-3.84375 0l0 4.03125zm10.279449 -3.765625l0 -1.734375l1.609375 0l0 1.375q0 1.109375 -0.265625 1.59375q-0.359375 0.671875 -1.109375 1.015625l-0.359375 -0.59375q0.4375 -0.171875 0.65625 -0.5625q0.234375 -0.40625 0.25 -1.09375l-0.78125 0zm2.578125 0l0 -1.734375l1.59375 0l0 1.375q0 1.109375 -0.25 1.59375q-0.359375 0.671875 -1.109375 1.015625l-0.375 -0.59375q0.453125 -0.171875 0.671875 -0.5625q0.21875 -0.40625 0.25 -1.09375l-0.78125 0zm4.5672913 14.140625l-1.0625 0q2.484375 -3.984375 2.484375 -7.984375q0 -1.546875 -0.359375 -3.09375q-0.28125 -1.234375 -0.796875 -2.390625q-0.3125 -0.75 -1.328125 -2.484375l1.0625 0q1.5625 2.078125 2.3125 4.1875q0.640625 1.796875 0.640625 3.78125q0 2.234375 -0.859375 4.328125q-0.859375 2.09375 -2.09375 3.65625z" fill-rule="nonzero"></path><path fill="#073763" d="m298.99588 58.755905l104.70529 0c1.1499939 0 2.2528992 0.4568329 3.0660706 1.2699966c0.81314087 0.8131676 1.269989 1.9160576 1.269989 3.0660477l0 21.679703c0 5.187988E-4 -4.272461E-4 9.460449E-4 -9.460449E-4 9.460449E-4l-113.376434 -9.460449E-4l0 0c-5.187988E-4 0 -9.460449E-4 -4.196167E-4 -9.460449E-4 -9.460449E-4l9.460449E-4 -21.678757l0 0c0 -2.3947296 1.9413147 -4.3360443 4.336029 -4.3360443z" fill-rule="nonzero"></path><path stroke="#000000" stroke-width="2.0" stroke-linejoin="round" stroke-linecap="butt" d="m298.99588 58.755905l104.70529 0c1.1499939 0 2.2528992 0.4568329 3.0660706 1.2699966c0.81314087 0.8131676 1.269989 1.9160576 1.269989 3.0660477l0 21.679703c0 5.187988E-4 -4.272461E-4 9.460449E-4 -9.460449E-4 9.460449E-4l-113.376434 -9.460449E-4l0 0c-5.187988E-4 0 -9.460449E-4 -4.196167E-4 -9.460449E-4 -9.460449E-4l9.460449E-4 -21.678757l0 0c0 -2.3947296 1.9413147 -4.3360443 4.336029 -4.3360443z" fill-rule="nonzero"></path><path fill="#ffffff" d="m335.28214 78.25877l0 -11.453125l5.078125 0q1.53125 0 2.328125 0.3125q0.796875 0.296875 1.265625 1.078125q0.484375 0.78125 0.484375 1.734375q0 1.21875 -0.796875 2.0625q-0.78125 0.828125 -2.4375 1.046875q0.609375 0.296875 0.921875 0.578125q0.65625 0.609375 1.25 1.515625l2.0 3.125l-1.90625 0l-1.515625 -2.390625q-0.671875 -1.03125 -1.109375 -1.578125q-0.421875 -0.546875 -0.765625 -0.765625q-0.328125 -0.21875 -0.6875 -0.296875q-0.25 -0.0625 -0.84375 -0.0625l-1.75 0l0 5.09375l-1.515625 0zm1.515625 -6.40625l3.25 0q1.046875 0 1.625 -0.203125q0.59375 -0.21875 0.890625 -0.6875q0.3125 -0.484375 0.3125 -1.03125q0 -0.8125 -0.59375 -1.328125q-0.59375 -0.53125 -1.859375 -0.53125l-3.625 0l0 3.78125zm10.0078125 6.40625l0 -11.453125l3.953125 0q1.328125 0 2.03125 0.15625q0.984375 0.234375 1.6875 0.828125q0.90625 0.765625 1.34375 1.953125q0.453125 1.1875 0.453125 2.71875q0 1.3125 -0.3125 2.328125q-0.296875 1.0 -0.78125 1.65625q-0.46875 0.65625 -1.03125 1.046875q-0.5625 0.375 -1.375 0.578125q-0.796875 0.1875 -1.828125 0.1875l-4.140625 0zm1.515625 -1.359375l2.453125 0q1.125 0 1.765625 -0.203125q0.65625 -0.21875 1.03125 -0.59375q0.546875 -0.546875 0.84375 -1.453125q0.296875 -0.90625 0.296875 -2.203125q0 -1.796875 -0.59375 -2.765625q-0.578125 -0.96875 -1.421875 -1.296875q-0.609375 -0.234375 -1.96875 -0.234375l-2.40625 0l0 8.75zm10.0390625 1.359375l0 -11.453125l3.953125 0q1.328125 0 2.03125 0.15625q0.984375 0.234375 1.6875 0.828125q0.90625 0.765625 1.34375 1.953125q0.453125 1.1875 0.453125 2.71875q0 1.3125 -0.3125 2.328125q-0.296875 1.0 -0.78125 1.65625q-0.46875 0.65625 -1.03125 1.046875q-0.5625 0.375 -1.375 0.578125q-0.796875 0.1875 -1.828125 0.1875l-4.140625 0zm1.515625 -1.359375l2.453125 0q1.125 0 1.765625 -0.203125q0.65625 -0.21875 1.03125 -0.59375q0.546875 -0.546875 0.84375 -1.453125q0.296875 -0.90625 0.296875 -2.203125q0 -1.796875 -0.59375 -2.765625q-0.578125 -0.96875 -1.421875 -1.296875q-0.609375 -0.234375 -1.96875 -0.234375l-2.40625 0l0 8.75z" fill-rule="nonzero"></path><path fill="#000000" fill-opacity="0.0" d="m294.65985 117.543304l-34.960632 0" fill-rule="nonzero"></path><path stroke="#000000" stroke-width="2.0" stroke-linejoin="round" stroke-linecap="butt" d="m294.65985 117.543304l-22.960632 0" fill-rule="evenodd"></path><path fill="#000000" stroke="#000000" stroke-width="2.0" stroke-linecap="butt" d="m271.69922 114.239845l-9.076202 3.3034592l9.076202 3.3034668z" fill-rule="evenodd"></path><path fill="#cfe2f3" d="m445.19217 84.77165l101.688446 0l0 65.543304l-101.688446 0z" fill-rule="nonzero"></path><path stroke="#000000" stroke-width="2.0" stroke-linejoin="round" stroke-linecap="butt" d="m445.19217 84.77165l101.688446 0l0 65.543304l-101.688446 0z" fill-rule="nonzero"></path><path fill="#000000" d="m474.53668 123.683304l0 -8.8125l1.328125 0l0 1.234375q0.421875 -0.640625 1.109375 -1.03125q0.6875 -0.40625 1.5625 -0.40625q0.984375 0 1.609375 0.40625q0.625 0.40625 0.890625 1.140625q1.046875 -1.546875 2.71875 -1.546875q1.3125 0 2.015625 0.734375q0.703125 0.71875 0.703125 2.234375l0 6.046875l-1.484375 0l0 -5.546875q0 -0.90625 -0.140625 -1.296875q-0.140625 -0.390625 -0.53125 -0.625q-0.375 -0.25 -0.890625 -0.25q-0.9375 0 -1.546875 0.625q-0.609375 0.609375 -0.609375 1.96875l0 5.125l-1.5 0l0 -5.734375q0 -0.984375 -0.375 -1.484375q-0.359375 -0.5 -1.1875 -0.5q-0.625 0 -1.171875 0.328125q-0.53125 0.328125 -0.78125 0.96875q-0.234375 0.640625 -0.234375 1.84375l0 4.578125l-1.484375 0zm20.184479 -1.09375q-0.828125 0.71875 -1.609375 1.015625q-0.765625 0.28125 -1.640625 0.28125q-1.453125 0 -2.234375 -0.703125q-0.78125 -0.71875 -0.78125 -1.828125q0 -0.640625 0.296875 -1.171875q0.296875 -0.546875 0.765625 -0.859375q0.484375 -0.328125 1.078125 -0.5q0.453125 -0.109375 1.328125 -0.21875q1.8125 -0.21875 2.671875 -0.515625q0 -0.3125 0 -0.390625q0 -0.90625 -0.421875 -1.28125q-0.5625 -0.515625 -1.703125 -0.515625q-1.046875 0 -1.546875 0.375q-0.5 0.359375 -0.75 1.3125l-1.453125 -0.203125q0.203125 -0.9375 0.65625 -1.515625q0.453125 -0.578125 1.3125 -0.890625q0.859375 -0.3125 2.0 -0.3125q1.140625 0 1.84375 0.265625q0.703125 0.265625 1.03125 0.671875q0.328125 0.40625 0.46875 1.015625q0.078125 0.375 0.078125 1.375l0 2.0q0 2.078125 0.09375 2.640625q0.09375 0.546875 0.375 1.046875l-1.5625 0q-0.234375 -0.46875 -0.296875 -1.09375zm-0.125 -3.328125q-0.8125 0.328125 -2.4375 0.5625q-0.921875 0.125 -1.3125 0.296875q-0.375 0.171875 -0.59375 0.5q-0.203125 0.3125 -0.203125 0.703125q0 0.59375 0.453125 1.0q0.453125 0.390625 1.328125 0.390625q0.859375 0 1.53125 -0.375q0.671875 -0.390625 1.0 -1.03125q0.234375 -0.515625 0.234375 -1.5l0 -0.546875zm4.012085 7.796875l0 -12.1875l1.359375 0l0 1.140625q0.484375 -0.671875 1.078125 -1.0q0.609375 -0.34375 1.46875 -0.34375q1.140625 0 2.0 0.578125q0.859375 0.578125 1.296875 1.640625q0.453125 1.0625 0.453125 2.328125q0 1.34375 -0.5 2.4375q-0.484375 1.078125 -1.40625 1.65625q-0.921875 0.578125 -1.9375 0.578125q-0.75 0 -1.34375 -0.3125q-0.59375 -0.328125 -0.984375 -0.796875l0 4.28125l-1.484375 0zm1.34375 -7.734375q0 1.703125 0.6875 2.515625q0.703125 0.8125 1.671875 0.8125q1.0 0 1.703125 -0.84375q0.71875 -0.84375 0.71875 -2.609375q0 -1.6875 -0.703125 -2.515625q-0.6875 -0.84375 -1.65625 -0.84375q-0.953125 0 -1.6875 0.890625q-0.734375 0.890625 -0.734375 2.59375zm11.137054 7.9375q-1.234375 -1.5625 -2.0937195 -3.65625q-0.84375 -2.09375 -0.84375 -4.328125q0 -1.984375 0.640625 -3.78125q0.7499695 -2.109375 2.2968445 -4.1875l1.078125 0q-1.0 1.71875 -1.328125 2.46875q-0.5 1.140625 -0.796875 2.390625q-0.359375 1.546875 -0.359375 3.109375q0 4.0 2.484375 7.984375l-1.078125 0zm3.8953857 0l-1.0625 0q2.484375 -3.984375 2.484375 -7.984375q0 -1.546875 -0.359375 -3.09375q-0.28125 -1.234375 -0.796875 -2.390625q-0.3125 -0.75 -1.328125 -2.484375l1.0625 0q1.5625 2.078125 2.3125 4.1875q0.640625 1.796875 0.640625 3.78125q0 2.234375 -0.859375 4.328125q-0.859375 2.09375 -2.09375 3.65625z" fill-rule="nonzero"></path><path fill="#073763" d="m449.52823 58.755905l93.01633 0c1.1500244 0 2.2529297 0.4568329 3.066101 1.2699966c0.81311035 0.8131676 1.2699585 1.9160576 1.2699585 3.0660477l0 21.679703c0 4.6539307E-4 -3.6621094E-4 8.468628E-4 -8.544922E-4 8.468628E-4l-101.68759 -8.468628E-4l0 0c-4.5776367E-4 0 -8.239746E-4 -3.8146973E-4 -8.239746E-4 -8.468628E-4l8.239746E-4 -21.678856l0 0c0 -2.3947296 1.9413147 -4.3360443 4.3360596 -4.3360443z" fill-rule="nonzero"></path><path stroke="#000000" stroke-width="2.0" stroke-linejoin="round" stroke-linecap="butt" d="m449.52823 58.755905l93.01633 0c1.1500244 0 2.2529297 0.4568329 3.066101 1.2699966c0.81311035 0.8131676 1.2699585 1.9160576 1.2699585 3.0660477l0 21.679703c0 4.6539307E-4 -3.6621094E-4 8.468628E-4 -8.544922E-4 8.468628E-4l-101.68759 -8.468628E-4l0 0c-4.5776367E-4 0 -8.239746E-4 -3.8146973E-4 -8.239746E-4 -8.468628E-4l8.239746E-4 -21.678856l0 0c0 -2.3947296 1.9413147 -4.3360443 4.3360596 -4.3360443z" fill-rule="nonzero"></path><path fill="#ffffff" d="m479.97 78.25877l0 -11.453125l5.078125 0q1.53125 0 2.328125 0.3125q0.796875 0.296875 1.265625 1.078125q0.484375 0.78125 0.484375 1.734375q0 1.21875 -0.796875 2.0625q-0.78125 0.828125 -2.4375 1.046875q0.609375 0.296875 0.921875 0.578125q0.65625 0.609375 1.25 1.515625l2.0 3.125l-1.90625 0l-1.515625 -2.390625q-0.671875 -1.03125 -1.109375 -1.578125q-0.421875 -0.546875 -0.765625 -0.765625q-0.328125 -0.21875 -0.6875 -0.296875q-0.25 -0.0625 -0.84375 -0.0625l-1.75 0l0 5.09375l-1.515625 0zm1.515625 -6.40625l3.25 0q1.046875 0 1.625 -0.203125q0.59375 -0.21875 0.890625 -0.6875q0.3125 -0.484375 0.3125 -1.03125q0 -0.8125 -0.59375 -1.328125q-0.59375 -0.53125 -1.859375 -0.53125l-3.625 0l0 3.78125zm10.0078125 6.40625l0 -11.453125l3.953125 0q1.328125 0 2.03125 0.15625q0.984375 0.234375 1.6875 0.828125q0.90625 0.765625 1.34375 1.953125q0.453125 1.1875 0.453125 2.71875q0 1.3125 -0.3125 2.328125q-0.296875 1.0 -0.78125 1.65625q-0.46875 0.65625 -1.03125 1.046875q-0.5625 0.375 -1.375 0.578125q-0.796875 0.1875 -1.828125 0.1875l-4.140625 0zm1.515625 -1.359375l2.453125 0q1.125 0 1.765625 -0.203125q0.65625 -0.21875 1.03125 -0.59375q0.546875 -0.546875 0.84375 -1.453125q0.296875 -0.90625 0.296875 -2.203125q0 -1.796875 -0.59375 -2.765625q-0.578125 -0.96875 -1.421875 -1.296875q-0.609375 -0.234375 -1.96875 -0.234375l-2.40625 0l0 8.75zm10.0390625 1.359375l0 -11.453125l3.953125 0q1.328125 0 2.03125 0.15625q0.984375 0.234375 1.6875 0.828125q0.90625 0.765625 1.3437195 1.953125q0.453125 1.1875 0.453125 2.71875q0 1.3125 -0.3125 2.328125q-0.29684448 1.0 -0.7812195 1.65625q-0.46875 0.65625 -1.03125 1.046875q-0.5625 0.375 -1.375 0.578125q-0.796875 0.1875 -1.828125 0.1875l-4.140625 0zm1.515625 -1.359375l2.453125 0q1.125 0 1.765625 -0.203125q0.65625 -0.21875 1.03125 -0.59375q0.546875 -0.546875 0.84375 -1.453125q0.296875 -0.90625 0.296875 -2.203125q0 -1.796875 -0.59375 -2.765625q-0.578125 -0.96875 -1.421875 -1.296875q-0.609375 -0.234375 -1.96875 -0.234375l-2.40625 0l0 8.75z" fill-rule="nonzero"></path><path fill="#000000" fill-opacity="0.0" d="m445.1922 117.543304l-37.165375 0" fill-rule="nonzero"></path><path stroke="#000000" stroke-width="2.0" stroke-linejoin="round" stroke-linecap="butt" d="m445.19217 117.543304l-25.165344 0" fill-rule="evenodd"></path><path fill="#000000" stroke="#000000" stroke-width="2.0" stroke-linecap="butt" d="m420.02682 114.239845l-9.076202 3.3034592l9.076202 3.3034668z" fill-rule="evenodd"></path><path fill="#cfe2f3" d="m584.03735 84.77165l101.688416 0l0 65.543304l-101.688416 0z" fill-rule="nonzero"></path><path stroke="#000000" stroke-width="2.0" stroke-linejoin="round" stroke-linecap="butt" d="m584.03735 84.77165l101.688416 0l0 65.543304l-101.688416 0z" fill-rule="nonzero"></path><path fill="#000000" d="m603.7291 123.683304l0 -8.8125l1.34375 0l0 1.328125q0.515625 -0.9375 0.9375 -1.234375q0.4375 -0.296875 0.96875 -0.296875q0.75 0 1.53125 0.484375l-0.515625 1.390625q-0.546875 -0.328125 -1.09375 -0.328125q-0.484375 0 -0.875 0.296875q-0.390625 0.296875 -0.5625 0.8125q-0.25 0.796875 -0.25 1.75l0 4.609375l-1.484375 0zm11.817261 -2.84375l1.546875 0.203125q-0.375 1.34375 -1.359375 2.09375q-0.984375 0.75 -2.515625 0.75q-1.9375 0 -3.078125 -1.1875q-1.125 -1.203125 -1.125 -3.34375q0 -2.234375 1.140625 -3.453125q1.140625 -1.234375 2.96875 -1.234375q1.78125 0 2.890625 1.203125q1.125 1.203125 1.125 3.390625q0 0.125 -0.015625 0.390625l-6.5625 0q0.078125 1.453125 0.8125 2.234375q0.75 0.765625 1.84375 0.765625q0.828125 0 1.40625 -0.421875q0.578125 -0.4375 0.921875 -1.390625zm-4.90625 -2.40625l4.921875 0q-0.09375 -1.109375 -0.5625 -1.671875q-0.71875 -0.859375 -1.859375 -0.859375q-1.015625 0 -1.71875 0.6875q-0.703125 0.6875 -0.78125 1.84375zm14.230835 5.25l0 -1.109375q-0.84375 1.3125 -2.46875 1.3125q-1.046875 0 -1.9375 -0.578125q-0.890625 -0.59375 -1.375 -1.625q-0.484375 -1.046875 -0.484375 -2.40625q0 -1.3125 0.4375 -2.390625q0.453125 -1.078125 1.328125 -1.640625q0.875 -0.578125 1.96875 -0.578125q0.796875 0 1.40625 0.34375q0.625 0.328125 1.015625 0.875l0 -4.375l1.484375 0l0 12.171875l-1.375 0zm-4.734375 -4.40625q0 1.703125 0.71875 2.546875q0.71875 0.828125 1.6875 0.828125q0.984375 0 1.65625 -0.796875q0.6875 -0.796875 0.6875 -2.453125q0 -1.796875 -0.703125 -2.640625q-0.6875 -0.859375 -1.703125 -0.859375q-1.0 0 -1.671875 0.8125q-0.671875 0.8125 -0.671875 2.5625zm14.418335 4.40625l0 -1.296875q-1.015625 1.5 -2.796875 1.5q-0.765625 0 -1.453125 -0.296875q-0.671875 -0.3125 -1.0 -0.75q-0.328125 -0.453125 -0.46875 -1.109375q-0.078125 -0.453125 -0.078125 -1.40625l0 -5.453125l1.484375 0l0 4.890625q0 1.171875 0.09375 1.578125q0.140625 0.578125 0.59375 0.921875q0.46875 0.328125 1.140625 0.328125q0.671875 0 1.25 -0.34375q0.59375 -0.34375 0.828125 -0.9375q0.25 -0.59375 0.25 -1.71875l0 -4.71875l1.5 0l0 8.8125l-1.34375 0zm9.62146 -3.234375l1.46875 0.203125q-0.234375 1.515625 -1.234375 2.375q-0.984375 0.859375 -2.4375 0.859375q-1.8125 0 -2.90625 -1.1875q-1.09375 -1.1875 -1.09375 -3.390625q0 -1.421875 0.46875 -2.484375q0.46875 -1.078125 1.4375 -1.609375q0.96875 -0.546875 2.109375 -0.546875q1.4375 0 2.34375 0.734375q0.90625 0.71875 1.171875 2.0625l-1.453125 0.21875q-0.203125 -0.890625 -0.734375 -1.328125q-0.53125 -0.453125 -1.28125 -0.453125q-1.125 0 -1.828125 0.8125q-0.703125 0.796875 -0.703125 2.546875q0 1.78125 0.671875 2.59375q0.6875 0.796875 1.78125 0.796875q0.875 0 1.46875 -0.53125q0.59375 -0.546875 0.75 -1.671875zm8.9453125 0.390625l1.546875 0.203125q-0.375 1.34375 -1.359375 2.09375q-0.984375 0.75 -2.515625 0.75q-1.9375 0 -3.078125 -1.1875q-1.125 -1.203125 -1.125 -3.34375q0 -2.234375 1.140625 -3.453125q1.140625 -1.234375 2.96875 -1.234375q1.78125 0 2.890625 1.203125q1.125 1.203125 1.125 3.390625q0 0.125 -0.015625 0.390625l-6.5625 0q0.078125 1.453125 0.8125 2.234375q0.75 0.765625 1.84375 0.765625q0.828125 0 1.40625 -0.421875q0.578125 -0.4375 0.921875 -1.390625zm-4.90625 -2.40625l4.921875 0q-0.09375 -1.109375 -0.5625 -1.671875q-0.71875 -0.859375 -1.859375 -0.859375q-1.015625 0 -1.71875 0.6875q-0.703125 0.6875 -0.78125 1.84375zm11.355835 8.828125q-1.234375 -1.5625 -2.09375 -3.65625q-0.84375 -2.09375 -0.84375 -4.328125q0 -1.984375 0.640625 -3.78125q0.75 -2.109375 2.296875 -4.1875l1.078125 0q-1.0 1.71875 -1.328125 2.46875q-0.5 1.140625 -0.796875 2.390625q-0.359375 1.546875 -0.359375 3.109375q0 4.0 2.484375 7.984375l-1.078125 0zm3.8953857 0l-1.0625 0q2.484375 -3.984375 2.484375 -7.984375q0 -1.546875 -0.359375 -3.09375q-0.28125 -1.234375 -0.796875 -2.390625q-0.3125 -0.75 -1.328125 -2.484375l1.0625 0q1.5625 2.078125 2.3125 4.1875q0.640625 1.796875 0.640625 3.78125q0 2.234375 -0.859375 4.328125q-0.859375 2.09375 -2.09375 3.65625z" fill-rule="nonzero"></path><path fill="#073763" d="m588.37335 58.755905l93.01636 0c1.1500244 0 2.2528687 0.4568329 3.06604 1.2699966c0.8131714 0.8131676 1.2700195 1.9160576 1.2700195 3.0660477l0 21.679703c0 4.6539307E-4 -3.6621094E-4 8.468628E-4 -8.544922E-4 8.468628E-4l-101.68756 -8.468628E-4l0 0c-4.8828125E-4 0 -8.544922E-4 -3.8146973E-4 -8.544922E-4 -8.468628E-4l8.544922E-4 -21.678856l0 0c0 -2.3947296 1.9412842 -4.3360443 4.3359985 -4.3360443z" fill-rule="nonzero"></path><path stroke="#000000" stroke-width="2.0" stroke-linejoin="round" stroke-linecap="butt" d="m588.37335 58.755905l93.01636 0c1.1500244 0 2.2528687 0.4568329 3.06604 1.2699966c0.8131714 0.8131676 1.2700195 1.9160576 1.2700195 3.0660477l0 21.679703c0 4.6539307E-4 -3.6621094E-4 8.468628E-4 -8.544922E-4 8.468628E-4l-101.68756 -8.468628E-4l0 0c-4.8828125E-4 0 -8.544922E-4 -3.8146973E-4 -8.544922E-4 -8.468628E-4l8.544922E-4 -21.678856l0 0c0 -2.3947296 1.9412842 -4.3360443 4.3359985 -4.3360443z" fill-rule="nonzero"></path><path fill="#ffffff" d="m618.8151 78.25877l0 -11.453125l5.078125 0q1.53125 0 2.328125 0.3125q0.796875 0.296875 1.265625 1.078125q0.484375 0.78125 0.484375 1.734375q0 1.21875 -0.796875 2.0625q-0.78125 0.828125 -2.4375 1.046875q0.609375 0.296875 0.921875 0.578125q0.65625 0.609375 1.25 1.515625l2.0 3.125l-1.90625 0l-1.515625 -2.390625q-0.671875 -1.03125 -1.109375 -1.578125q-0.421875 -0.546875 -0.765625 -0.765625q-0.328125 -0.21875 -0.6875 -0.296875q-0.25 -0.0625 -0.84375 -0.0625l-1.75 0l0 5.09375l-1.515625 0zm1.515625 -6.40625l3.25 0q1.046875 0 1.625 -0.203125q0.59375 -0.21875 0.890625 -0.6875q0.3125 -0.484375 0.3125 -1.03125q0 -0.8125 -0.59375 -1.328125q-0.59375 -0.53125 -1.859375 -0.53125l-3.625 0l0 3.78125zm10.0078125 6.40625l0 -11.453125l3.953125 0q1.328125 0 2.03125 0.15625q0.984375 0.234375 1.6875 0.828125q0.90625 0.765625 1.34375 1.953125q0.453125 1.1875 0.453125 2.71875q0 1.3125 -0.3125 2.328125q-0.296875 1.0 -0.78125 1.65625q-0.46875 0.65625 -1.03125 1.046875q-0.5625 0.375 -1.375 0.578125q-0.796875 0.1875 -1.828125 0.1875l-4.140625 0zm1.515625 -1.359375l2.453125 0q1.125 0 1.765625 -0.203125q0.65625 -0.21875 1.03125 -0.59375q0.546875 -0.546875 0.84375 -1.453125q0.296875 -0.90625 0.296875 -2.203125q0 -1.796875 -0.59375 -2.765625q-0.578125 -0.96875 -1.421875 -1.296875q-0.609375 -0.234375 -1.96875 -0.234375l-2.40625 0l0 8.75zm10.0390625 1.359375l0 -11.453125l3.953125 0q1.328125 0 2.03125 0.15625q0.984375 0.234375 1.6875 0.828125q0.90625 0.765625 1.34375 1.953125q0.453125 1.1875 0.453125 2.71875q0 1.3125 -0.3125 2.328125q-0.296875 1.0 -0.78125 1.65625q-0.46875 0.65625 -1.03125 1.046875q-0.5625 0.375 -1.375 0.578125q-0.796875 0.1875 -1.828125 0.1875l-4.140625 0zm1.515625 -1.359375l2.453125 0q1.125 0 1.765625 -0.203125q0.65625 -0.21875 1.03125 -0.59375q0.546875 -0.546875 0.84375 -1.453125q0.296875 -0.90625 0.296875 -2.203125q0 -1.796875 -0.59375 -2.765625q-0.578125 -0.96875 -1.421875 -1.296875q-0.609375 -0.234375 -1.96875 -0.234375l-2.40625 0l0 8.75z" fill-rule="nonzero"></path><path fill="#000000" fill-opacity="0.0" d="m584.03735 117.543304l-37.165405 0" fill-rule="nonzero"></path><path stroke="#000000" stroke-width="2.0" stroke-linejoin="round" stroke-linecap="butt" d="m584.0373 117.543304l-25.165344 0" fill-rule="evenodd"></path><path fill="#000000" stroke="#000000" stroke-width="2.0" stroke-linecap="butt" d="m558.87195 114.239845l-9.076172 3.3034592l9.076172 3.3034668z" fill-rule="evenodd"></path><path fill="#000000" fill-opacity="0.0" d="m123.20473 7.7322836l578.7087 0l0 170.86615l-578.7087 0z" fill-rule="nonzero"></path><path stroke="#000000" stroke-width="2.0" stroke-linejoin="round" stroke-linecap="butt" stroke-dasharray="2.0,6.0" d="m123.20473 7.7322836l578.7087 0l0 170.86615l-578.7087 0z" fill-rule="nonzero"></path><path fill="#000000" d="m382.91882 34.652283l0 -13.593752l5.125 0q1.359375 0 2.078125 0.125q1.0 0.171875 1.671875 0.640625q0.671875 0.46875 1.078125 1.3125q0.421875 0.84375 0.421875 1.84375q0 1.734375 -1.109375 2.9375q-1.09375 1.203125 -3.984375 1.203125l-3.484375 0l0 5.531252l-1.796875 0zm1.796875 -7.140627l3.515625 0q1.75 0 2.46875 -0.640625q0.734375 -0.65625 0.734375 -1.828125q0 -0.859375 -0.4375 -1.46875q-0.421875 -0.609375 -1.125 -0.796875q-0.453125 -0.125 -1.671875 -0.125l-3.484375 0l0 4.859375zm16.865448 5.921877q-0.9375 0.796875 -1.796875 1.125q-0.859375 0.3125 -1.84375 0.3125q-1.609375 0 -2.484375 -0.78125q-0.875 -0.796875 -0.875 -2.03125q0 -0.7343769 0.328125 -1.3281269q0.328125 -0.59375 0.859375 -0.953125q0.53125 -0.359375 1.203125 -0.546875q0.5 -0.140625 1.484375 -0.25q2.03125 -0.25 2.984375 -0.578125q0 -0.34375 0 -0.4375q0 -1.015625 -0.46875 -1.4375q-0.640625 -0.5625 -1.90625 -0.5625q-1.171875 0 -1.734375 0.40625q-0.5625 0.40625 -0.828125 1.46875l-1.640625 -0.234375q0.234375 -1.046875 0.734375 -1.6875q0.515625 -0.640625 1.46875 -0.984375q0.96875 -0.359375 2.25 -0.359375q1.265625 0 2.046875 0.296875q0.78125 0.296875 1.15625 0.75q0.375 0.453125 0.515625 1.140625q0.09375 0.421875 0.09375 1.53125l0 2.234375q0 2.328127 0.09375 2.953127q0.109375 0.609375 0.4375 1.171875l-1.75 0q-0.265625 -0.515625 -0.328125 -1.21875zm-0.140625 -3.718752q-0.90625 0.359375 -2.734375 0.625q-1.03125 0.140625 -1.453125 0.328125q-0.421875 0.1875 -0.65625 0.546875q-0.234375 0.359375 -0.234375 0.7968769q0 0.671875 0.5 1.125q0.515625 0.4375 1.484375 0.4375q0.96875 0 1.71875 -0.421875q0.75 -0.4375 1.109375 -1.1562519q0.265625 -0.578125 0.265625 -1.671875l0 -0.609375zm4.063202 4.937502l0 -9.859377l1.5 0l0 1.5q0.578125 -1.046875 1.0625 -1.375q0.484375 -0.34375 1.078125 -0.34375q0.84375 0 1.71875 0.546875l-0.578125 1.546875q-0.609375 -0.359375 -1.234375 -0.359375q-0.546875 0 -0.984375 0.328125q-0.421875 0.328125 -0.609375 0.90625q-0.28125 0.890625 -0.28125 1.953125l0 5.156252l-1.671875 0zm12.6658325 -1.21875q-0.9375 0.796875 -1.796875 1.125q-0.859375 0.3125 -1.84375 0.3125q-1.609375 0 -2.484375 -0.78125q-0.875 -0.796875 -0.875 -2.03125q0 -0.7343769 0.328125 -1.3281269q0.328125 -0.59375 0.859375 -0.953125q0.53125 -0.359375 1.203125 -0.546875q0.5 -0.140625 1.484375 -0.25q2.03125 -0.25 2.984375 -0.578125q0 -0.34375 0 -0.4375q0 -1.015625 -0.46875 -1.4375q-0.640625 -0.5625 -1.90625 -0.5625q-1.171875 0 -1.734375 0.40625q-0.5625 0.40625 -0.828125 1.46875l-1.640625 -0.234375q0.234375 -1.046875 0.734375 -1.6875q0.515625 -0.640625 1.46875 -0.984375q0.96875 -0.359375 2.25 -0.359375q1.265625 0 2.046875 0.296875q0.78125 0.296875 1.15625 0.75q0.375 0.453125 0.515625 1.140625q0.09375 0.421875 0.09375 1.53125l0 2.234375q0 2.328127 0.09375 2.953127q0.109375 0.609375 0.4375 1.171875l-1.75 0q-0.265625 -0.515625 -0.328125 -1.21875zm-0.140625 -3.718752q-0.90625 0.359375 -2.734375 0.625q-1.03125 0.140625 -1.453125 0.328125q-0.421875 0.1875 -0.65625 0.546875q-0.234375 0.359375 -0.234375 0.7968769q0 0.671875 0.5 1.125q0.515625 0.4375 1.484375 0.4375q0.96875 0 1.71875 -0.421875q0.75 -0.4375 1.109375 -1.1562519q0.265625 -0.578125 0.265625 -1.671875l0 -0.609375zm4.047577 4.937502l0 -13.593752l1.671875 0l0 13.593752l-1.671875 0zm4.144806 0l0 -13.593752l1.671875 0l0 13.593752l-1.671875 0zm10.926086 -3.171877l1.71875 0.21875q-0.40625 1.5000019 -1.515625 2.343752q-1.09375 0.828125 -2.8125 0.828125q-2.15625 0 -3.421875 -1.328125q-1.265625 -1.328125 -1.265625 -3.734377q0 -2.484375 1.265625 -3.859375q1.28125 -1.375 3.328125 -1.375q1.984375 0 3.234375 1.34375q1.25 1.34375 1.25 3.796875q0 0.140625 -0.015625 0.4375l-7.34375 0q0.09375 1.625 0.921875 2.484377q0.828125 0.859375 2.0625 0.859375q0.90625 0 1.546875 -0.46875q0.65625 -0.484375 1.046875 -1.5468769zm-5.484375 -2.703125l5.5 0q-0.109375 -1.234375 -0.625 -1.859375q-0.796875 -0.96875 -2.078125 -0.96875q-1.140625 0 -1.9375 0.78125q-0.78125 0.765625 -0.859375 2.046875zm9.078857 5.875002l0 -13.593752l1.671875 0l0 13.593752l-1.671875 0z" fill-rule="nonzero"></path><path fill="#cfe2f3" d="m722.8819 98.70885l0 0c0 -5.2011414 4.2163696 -9.417511 9.41748 -9.417511l64.81854 0c2.4976807 0 4.8930664 0.99220276 6.6591797 2.7583313c1.7661133 1.7661209 2.7583618 4.1615067 2.7583618 6.6591797l0 37.668915c0 5.2011566 -4.2163696 9.417511 -9.4175415 9.417511l-64.81854 0l0 0c-5.201111 0 -9.41748 -4.2163544 -9.41748 -9.417511z" fill-rule="nonzero"></path><path stroke="#000000" stroke-width="2.0" stroke-linejoin="round" stroke-linecap="butt" d="m722.8819 98.70885l0 0c0 -5.2011414 4.2163696 -9.417511 9.41748 -9.417511l64.81854 0c2.4976807 0 4.8930664 0.99220276 6.6591797 2.7583313c1.7661133 1.7661209 2.7583618 4.1615067 2.7583618 6.6591797l0 37.668915c0 5.2011566 -4.2163696 9.417511 -9.4175415 9.417511l-64.81854 0l0 0c-5.201111 0 -9.41748 -4.2163544 -9.41748 -9.417511z" fill-rule="nonzero"></path><path fill="#000000" d="m743.1329 124.46331l0 -9.859375l1.5 0l0 1.5q0.578125 -1.046875 1.0625 -1.375q0.484375 -0.34375 1.078125 -0.34375q0.84375 0 1.71875 0.546875l-0.578125 1.546875q-0.609375 -0.359375 -1.234375 -0.359375q-0.546875 0 -0.984375 0.328125q-0.421875 0.328125 -0.609375 0.90625q-0.28125 0.890625 -0.28125 1.953125l0 5.15625l-1.671875 0zm12.9782715 -3.171875l1.71875 0.21875q-0.40625 1.5 -1.515625 2.34375q-1.09375 0.828125 -2.8125 0.828125q-2.15625 0 -3.421875 -1.328125q-1.265625 -1.328125 -1.265625 -3.734375q0 -2.484375 1.265625 -3.859375q1.28125 -1.375 3.328125 -1.375q1.984375 0 3.234375 1.34375q1.25 1.34375 1.25 3.796875q0 0.140625 -0.015625 0.4375l-7.34375 0q0.09375 1.625 0.921875 2.484375q0.828125 0.859375 2.0625 0.859375q0.90625 0 1.546875 -0.46875q0.65625 -0.484375 1.046875 -1.546875zm-5.484375 -2.703125l5.5 0q-0.109375 -1.234375 -0.625 -1.859375q-0.796875 -0.96875 -2.078125 -0.96875q-1.140625 0 -1.9375 0.78125q-0.78125 0.765625 -0.859375 2.046875zm8.438232 2.9375l1.65625 -0.265625q0.140625 1.0 0.765625 1.53125q0.640625 0.515625 1.78125 0.515625q1.15625 0 1.703125 -0.46875q0.5625 -0.46875 0.5625 -1.09375q0 -0.5625 -0.484375 -0.890625q-0.34375 -0.21875 -1.703125 -0.5625q-1.84375 -0.46875 -2.5625 -0.796875q-0.703125 -0.34375 -1.078125 -0.9375q-0.359375 -0.609375 -0.359375 -1.328125q0 -0.65625 0.296875 -1.21875q0.3125 -0.5625 0.828125 -0.9375q0.390625 -0.28125 1.0625 -0.484375q0.671875 -0.203125 1.4375 -0.203125q1.171875 0 2.046875 0.34375q0.875 0.328125 1.28125 0.90625q0.421875 0.5625 0.578125 1.515625l-1.625 0.21875q-0.109375 -0.75 -0.65625 -1.171875q-0.53125 -0.4375 -1.5 -0.4375q-1.15625 0 -1.640625 0.390625q-0.484375 0.375 -0.484375 0.875q0 0.328125 0.203125 0.59375q0.203125 0.265625 0.640625 0.4375q0.25 0.09375 1.46875 0.4375q1.765625 0.46875 2.46875 0.765625q0.703125 0.296875 1.09375 0.875q0.40625 0.578125 0.40625 1.4375q0 0.828125 -0.484375 1.578125q-0.484375 0.734375 -1.40625 1.140625q-0.921875 0.390625 -2.078125 0.390625q-1.921875 0 -2.9375 -0.796875q-1.0 -0.796875 -1.28125 -2.359375zm16.453125 2.9375l0 -1.453125q-1.140625 1.671875 -3.125 1.671875q-0.859375 0 -1.625 -0.328125q-0.75 -0.34375 -1.125 -0.84375q-0.359375 -0.5 -0.515625 -1.234375q-0.09375 -0.5 -0.09375 -1.5625l0 -6.109375l1.671875 0l0 5.46875q0 1.3125 0.09375 1.765625q0.15625 0.65625 0.671875 1.03125q0.515625 0.375 1.265625 0.375q0.75 0 1.40625 -0.375q0.65625 -0.390625 0.921875 -1.046875q0.28125 -0.671875 0.28125 -1.9375l0 -5.28125l1.671875 0l0 9.859375l-1.5 0zm3.8913574 0l0 -13.59375l1.671875 0l0 13.59375l-1.671875 0zm7.8322754 -1.5l0.234375 1.484375q-0.703125 0.140625 -1.265625 0.140625q-0.90625 0 -1.40625 -0.28125q-0.5 -0.296875 -0.703125 -0.75q-0.203125 -0.46875 -0.203125 -1.984375l0 -5.65625l-1.234375 0l0 -1.3125l1.234375 0l0 -2.4375l1.65625 -1.0l0 3.4375l1.6875 0l0 1.3125l-1.6875 0l0 5.75q0 0.71875 0.078125 0.921875q0.09375 0.203125 0.296875 0.328125q0.203125 0.125 0.578125 0.125q0.265625 0 0.734375 -0.078125z" fill-rule="nonzero"></path><path fill="#000000" fill-opacity="0.0" d="m685.72577 117.543304l37.165344 0" fill-rule="nonzero"></path><path stroke="#000000" stroke-width="2.0" stroke-linejoin="round" stroke-linecap="butt" d="m685.72577 117.543304l25.165405 0" fill-rule="evenodd"></path><path fill="#000000" stroke="#000000" stroke-width="2.0" stroke-linecap="butt" d="m710.8912 120.84677l9.076172 -3.3034668l-9.076172 -3.3034592z" fill-rule="evenodd"></path><path fill="#000000" fill-opacity="0.0" d="m711.49603 7.7322836l106.42523 0l0 170.86615l-106.42523 0z" fill-rule="nonzero"></path><path stroke="#000000" stroke-width="2.0" stroke-linejoin="round" stroke-linecap="butt" stroke-dasharray="2.0,6.0" d="m711.49603 7.7322836l106.42523 0l0 170.86615l-106.42523 0z" fill-rule="nonzero"></path><path fill="#000000" d="m741.30396 34.652283l0 -13.593752l4.6875 0q1.578125 0 2.421875 0.1875q1.15625 0.265625 1.984375 0.96875q1.078125 0.921875 1.609375 2.34375q0.53125 1.40625 0.53125 3.21875q0 1.546875 -0.359375 2.75q-0.359375 1.1875 -0.921875 1.9843769q-0.5625 0.78125 -1.234375 1.234375q-0.671875 0.4375 -1.625 0.671875q-0.953125 0.234375 -2.1875 0.234375l-4.90625 0zm1.796875 -1.609375l2.90625 0q1.34375 0 2.109375 -0.25q0.765625 -0.25 1.21875 -0.703125q0.640625 -0.6406269 1.0 -1.7187519q0.359375 -1.078125 0.359375 -2.625q0 -2.125 -0.703125 -3.265625q-0.703125 -1.15625 -1.703125 -1.546875q-0.71875 -0.28125 -2.328125 -0.28125l-2.859375 0l0 10.390627zm11.44165 1.609375l0 -9.859377l1.5 0l0 1.5q0.578125 -1.046875 1.0625 -1.375q0.484375 -0.34375 1.078125 -0.34375q0.84375 0 1.71875 0.546875l-0.578125 1.546875q-0.609375 -0.359375 -1.234375 -0.359375q-0.546875 0 -0.984375 0.328125q-0.421875 0.328125 -0.609375 0.90625q-0.28125 0.890625 -0.28125 1.953125l0 5.156252l-1.671875 0zm6.2439575 -11.687502l0 -1.90625l1.671875 0l0 1.90625l-1.671875 0zm0 11.687502l0 -9.859377l1.671875 0l0 9.859377l-1.671875 0zm6.8635864 0l-3.75 -9.859377l1.765625 0l2.125 5.90625q0.34375 0.953125 0.625 1.9843769q0.21875 -0.7812519 0.625 -1.8750019l2.1875 -6.015625l1.71875 0l-3.734375 9.859377l-1.5625 0zm13.34375 -3.171877l1.71875 0.21875q-0.40625 1.5000019 -1.515625 2.343752q-1.09375 0.828125 -2.8125 0.828125q-2.15625 0 -3.421875 -1.328125q-1.265625 -1.328125 -1.265625 -3.734377q0 -2.484375 1.265625 -3.859375q1.28125 -1.375 3.328125 -1.375q1.984375 0 3.234375 1.34375q1.25 1.34375 1.25 3.796875q0 0.140625 -0.015625 0.4375l-7.34375 0q0.09375 1.625 0.921875 2.484377q0.828125 0.859375 2.0625 0.859375q0.90625 0 1.546875 -0.46875q0.65625 -0.484375 1.046875 -1.5468769zm-5.484375 -2.703125l5.5 0q-0.109375 -1.234375 -0.625 -1.859375q-0.796875 -0.96875 -2.078125 -0.96875q-1.140625 0 -1.9375 0.78125q-0.78125 0.765625 -0.859375 2.046875zm9.094421 5.875002l0 -9.859377l1.5 0l0 1.5q0.578125 -1.046875 1.0625 -1.375q0.484375 -0.34375 1.078125 -0.34375q0.84375 0 1.71875 0.546875l-0.578125 1.546875q-0.609375 -0.359375 -1.234375 -0.359375q-0.546875 0 -0.984375 0.328125q-0.421875 0.328125 -0.609375 0.90625q-0.28125 0.890625 -0.28125 1.953125l0 5.156252l-1.671875 0z" fill-rule="nonzero"></path><path fill="#000000" d="m730.409 56.652283l0 -13.59375l5.125 0q1.359375 0 2.078125 0.125q1.0 0.171875 1.671875 0.640625q0.671875 0.46875 1.078125 1.3125q0.421875 0.84375 0.421875 1.84375q0 1.734375 -1.109375 2.9375q-1.09375 1.203125 -3.984375 1.203125l-3.484375 0l0 5.53125l-1.796875 0zm1.796875 -7.140625l3.515625 0q1.75 0 2.46875 -0.640625q0.734375 -0.65625 0.734375 -1.828125q0 -0.859375 -0.4375 -1.46875q-0.421875 -0.609375 -1.125 -0.796875q-0.453125 -0.125 -1.671875 -0.125l-3.484375 0l0 4.859375zm10.4122925 7.140625l0 -9.859375l1.5 0l0 1.5q0.578125 -1.046875 1.0625 -1.375q0.484375 -0.34375 1.078125 -0.34375q0.84375 0 1.71875 0.546875l-0.578125 1.546875q-0.609375 -0.359375 -1.234375 -0.359375q-0.546875 0 -0.984375 0.328125q-0.421875 0.328125 -0.609375 0.90625q-0.28125 0.890625 -0.28125 1.953125l0 5.15625l-1.671875 0zm5.6033325 -4.921875q0 -2.734375 1.53125 -4.0625q1.265625 -1.09375 3.09375 -1.09375q2.03125 0 3.3125 1.34375q1.296875 1.328125 1.296875 3.671875q0 1.90625 -0.578125 3.0q-0.5625 1.078125 -1.65625 1.6875q-1.078125 0.59375 -2.375 0.59375q-2.0625 0 -3.34375 -1.328125q-1.28125 -1.328125 -1.28125 -3.8125zm1.71875 0q0 1.890625 0.828125 2.828125q0.828125 0.9375 2.078125 0.9375q1.25 0 2.0625 -0.9375q0.828125 -0.953125 0.828125 -2.890625q0 -1.828125 -0.828125 -2.765625q-0.828125 -0.9375 -2.0625 -0.9375q-1.25 0 -2.078125 0.9375q-0.828125 0.9375 -0.828125 2.828125zm8.985046 5.734375l1.609375 0.25q0.109375 0.75 0.578125 1.09375q0.609375 0.453125 1.6875 0.453125q1.171875 0 1.796875 -0.46875q0.625 -0.453125 0.859375 -1.28125q0.125 -0.515625 0.109375 -2.15625q-1.09375 1.296875 -2.71875 1.296875q-2.03125 0 -3.15625 -1.46875q-1.109375 -1.46875 -1.109375 -3.515625q0 -1.40625 0.515625 -2.59375q0.515625 -1.203125 1.484375 -1.84375q0.96875 -0.65625 2.265625 -0.65625q1.75 0 2.875 1.40625l0 -1.1875l1.546875 0l0 8.515625q0 2.3125 -0.46875 3.265625q-0.46875 0.96875 -1.484375 1.515625q-1.015625 0.5625 -2.5 0.5625q-1.765625 0 -2.859375 -0.796875q-1.078125 -0.796875 -1.03125 -2.390625zm1.375 -5.921875q0 1.953125 0.765625 2.84375q0.78125 0.890625 1.9375 0.890625q1.140625 0 1.921875 -0.890625q0.78125 -0.890625 0.78125 -2.78125q0 -1.8125 -0.8125 -2.71875q-0.796875 -0.921875 -1.921875 -0.921875q-1.109375 0 -1.890625 0.90625q-0.78125 0.890625 -0.78125 2.671875zm9.281982 5.109375l0 -9.859375l1.5 0l0 1.5q0.578125 -1.046875 1.0625 -1.375q0.484375 -0.34375 1.078125 -0.34375q0.84375 0 1.71875 0.546875l-0.578125 1.546875q-0.609375 -0.359375 -1.234375 -0.359375q-0.546875 0 -0.984375 0.328125q-0.421875 0.328125 -0.609375 0.90625q-0.28125 0.890625 -0.28125 1.953125l0 5.15625l-1.671875 0zm12.6658325 -1.21875q-0.9375 0.796875 -1.796875 1.125q-0.859375 0.3125 -1.84375 0.3125q-1.609375 0 -2.484375 -0.78125q-0.875 -0.796875 -0.875 -2.03125q0 -0.734375 0.328125 -1.328125q0.328125 -0.59375 0.859375 -0.953125q0.53125 -0.359375 1.203125 -0.546875q0.5 -0.140625 1.484375 -0.25q2.03125 -0.25 2.984375 -0.578125q0 -0.34375 0 -0.4375q0 -1.015625 -0.46875 -1.4375q-0.640625 -0.5625 -1.90625 -0.5625q-1.171875 0 -1.734375 0.40625q-0.5625 0.40625 -0.828125 1.46875l-1.640625 -0.234375q0.234375 -1.046875 0.734375 -1.6875q0.515625 -0.640625 1.46875 -0.984375q0.96875 -0.359375 2.25 -0.359375q1.265625 0 2.046875 0.296875q0.78125 0.296875 1.15625 0.75q0.375 0.453125 0.515625 1.140625q0.09375 0.421875 0.09375 1.53125l0 2.234375q0 2.328125 0.09375 2.953125q0.109375 0.609375 0.4375 1.171875l-1.75 0q-0.265625 -0.515625 -0.328125 -1.21875zm-0.140625 -3.71875q-0.90625 0.359375 -2.734375 0.625q-1.03125 0.140625 -1.453125 0.328125q-0.421875 0.1875 -0.65625 0.546875q-0.234375 0.359375 -0.234375 0.796875q0 0.671875 0.5 1.125q0.515625 0.4375 1.484375 0.4375q0.96875 0 1.71875 -0.421875q0.75 -0.4375 1.109375 -1.15625q0.265625 -0.578125 0.265625 -1.671875l0 -0.609375zm4.0787964 4.9375l0 -9.859375l1.5 0l0 1.390625q0.453125 -0.71875 1.21875 -1.15625q0.78125 -0.453125 1.765625 -0.453125q1.09375 0 1.796875 0.453125q0.703125 0.453125 0.984375 1.28125q1.171875 -1.734375 3.046875 -1.734375q1.46875 0 2.25 0.8125q0.796875 0.8125 0.796875 2.5l0 6.765625l-1.671875 0l0 -6.203125q0 -1.0 -0.15625 -1.4375q-0.15625 -0.453125 -0.59375 -0.71875q-0.421875 -0.265625 -1.0 -0.265625q-1.03125 0 -1.71875 0.6875q-0.6875 0.6875 -0.6875 2.21875l0 5.71875l-1.671875 0l0 -6.40625q0 -1.109375 -0.40625 -1.65625q-0.40625 -0.5625 -1.34375 -0.5625q-0.703125 0 -1.3125 0.375q-0.59375 0.359375 -0.859375 1.078125q-0.265625 0.71875 -0.265625 2.0625l0 5.109375l-1.671875 0z" fill-rule="nonzero"></path></g></svg>

